<svg width="24" height="26" viewBox="0 0 24 26" fill="none" xmlns="http://www.w3.org/2000/svg">
<path d="M20 7V19C20 23.8 19 25 15 25H9C5 25 4 23.8 4 19V7C4 2.2 5 1 9 1H15C19 1 20 2.2 20 7Z" stroke="#292D32" stroke-linecap="round" stroke-linejoin="round"/>
<path d="M14 5.2H10" stroke="#292D32" stroke-linecap="round" stroke-linejoin="round"/>
<path d="M12 21.52C12.8561 21.52 13.55 20.6872 13.55 19.66C13.55 18.6328 12.8561 17.8 12 17.8C11.144 17.8 10.45 18.6328 10.45 19.66C10.45 20.6872 11.144 21.52 12 21.52Z" stroke="#292D32" stroke-linecap="round" stroke-linejoin="round"/>
</svg>
